# AST/ASF file generated using VICON BodyLanguage
# -----------------------------------------------
:version 1.10
:name VICON
:units
  mass 1.0
  length 0.45
  angle deg
:documentation
   .ast/.asf automatically generated from VICON data using
   VICON BodyBuilder and BodyLanguage model FoxedUp or BRILLIANT.MOD
:root
   order TX TY TZ RX RY RZ
   axis XYZ
   position 0 0 0  
   orientation 0 0 0 
:bonedata
  begin
     id 1 
     name lhipjoint
     direction 0.598477 -0.721498 0.348234 
     length 2.38516 
     axis 0 0 0  XYZ
  end
  begin
     id 2 
     name lfemur
     direction 0.34202 -0.939693 0  
     length 6.81097  
     axis 0 0 20  XYZ
    dof rx ry rz
    limits (-160.0 20.0)
           (-70.0 70.0)
           (-60.0 70.0)
  end
  begin
     id 3 
     name ltibia
     direction 0.34202 -0.939693 0   
     length 7.43697   
     axis 0 0 20   XYZ
    dof rx
    limits (-10.0 170.0)
  end
  begin
     id 4 
     name lfoot
     direction 0.0644912 -0.177188 0.982062   
     length 2.0384   
     axis -90 7.62852e-016 20   XYZ
    dof rx rz
    limits (-45.0 90.0)
           (-70.0 20.0)
  end
  begin
     id 5 
     name ltoes
     direction 1.53517e-011 -4.21905e-011 1   
     length 1.02854   
     axis -90 7.62852e-016 20   XYZ
    dof rx
    limits (-90.0 20.0)
  end
  begin
     id 6 
     name rhipjoint
     direction -0.591517 -0.726138 0.350474   
     length 2.36992  
     axis 0 0 0  XYZ 
  end
  begin
     id 7 
     name rfemur
     direction -0.34202 -0.939693 0   
     length 6.93503   
     axis 0 0 -20   XYZ
    dof rx ry rz
    limits (-160.0 20.0)
           (-70.0 70.0)
           (-70.0 60.0)
  end
  begin
     id 8 
     name rtibia
     direction -0.34202 -0.939693 0   
     length 7.45107   
     axis 0 0 -20   XYZ
    dof rx
    limits (-10.0 170.0)
 end
 begin
     id 9 
     name rfoot
     direction -0.0677555 -0.186157 0.980181   
     length 1.90244  
     axis -90 -7.62852e-016 -20   XYZ
    dof rx rz
    limits (-45.0 90.0)
           (-20.0 70.0)
  end
  begin
     id 10 
     name rtoes
     direction -1.53409e-011 -4.21428e-011 1   
     length 0.961454   
     axis -90 -7.62852e-016 -20   XYZ
    dof rx
    limits (-90.0 20.0)
  end
  begin
     id 11 
     name lowerback
     direction -0.0289484 0.992437 0.119291   
     length 1.96261   
     axis 0 0 0   XYZ
    dof rx ry rz
    limits (-20.0 45.0)
           (-30.0 30.0)
           (-30.0 30.0)
  end
  begin
     id 12 
     name upperback
     direction 0.0109352 0.999834 0.0146028   
     length 1.96894   
     axis 0 0 0   XYZ
    dof rx ry rz
    limits (-20.0 45.0)
           (-30.0 30.0)
           (-30.0 30.0)
  end
  begin
     id 13 
     name thorax
     direction 0.0232227 0.998895 -0.0408582   
     length 2.00029   
     axis 0 0 0   XYZ
    dof rx ry rz
    limits (-20.0 45.0)
           (-30.0 30.0)
           (-30.0 30.0)
  end
  begin
     id 14 
     name lowerneck
     direction -0.00291659 0.999583 0.0287188   
     length 1.72722   
     axis 0 0 0   XYZ
    dof rx ry rz
    limits (-20.0 45.0)
           (-30.0 30.0)
           (-30.0 30.0)
  end
  begin
     id 15 
     name upperneck
     direction 0.0277639 0.998467 -0.0478817   
     length 1.68525   
     axis 0 0 0   XYZ
    dof rx ry rz
    limits (-20.0 45.0)
           (-30.0 30.0)
           (-30.0 30.0)
  end
  begin
     id 16
     name head
     direction 0.00895921 0.999741 -0.020943  
     length 1.78934  
     axis 0 0 0   XYZ
    dof rx ry rz
    limits (-20.0 45.0)
           (-30.0 30.0)
           (-30.0 30.0)
  end
  begin
     id 17 
     name lclavicle
     direction 0.907972 0.393865 -0.143029  
     length 3.37543  
     axis 0 0 0   XYZ
    dof ry rz
    limits (-20.0 10.0)
           (0.0 20.0)
  end
  begin
     id 18 
     name lhumerus
     direction 1 -4.48915e-011 -1.10425e-027   
     length 4.94762   
     axis -180 -30 -90   XYZ
    dof rx ry rz
    limits (-60.0 90.0)
           (-90.0 90.0)
           (-90.0 90.0)
  end
  begin
     id 19
     name lradius
     direction 1 1.63657e-005 -9.44877e-006   
     length 3.11144   
     axis -180 -30 -90   XYZ
    dof rx
    limits (-10.0 170.0)
  end
  begin
     id 20
     name lwrist
     direction 1 -5.04565e-007 -1.8883e-005   
     length 1.55572   
     axis 1.22104e-015 90 90   XYZ
    dof ry
    limits (-180.0 0.0)
 end
  begin
     id 21 
     name lhand
     direction 1 -4.48949e-011 -2.20333e-027   
     length 0.686387   
     axis 1.40591e-015 90 90   XYZ
    dof rx rz
    limits (-90.0 90.0)
           (-45.0 45.0)
  end
  begin
     id 22 
     name lfingers
     direction 1 -4.49191e-011 -4.40665e-027   
     length 0.553383   
     axis 2.81182e-015 90 90   XYZ
    dof rx
    limits (0.0 90.0)
  end
  begin
     id 23
     name lthumb
     direction 0.707107 -6.35116e-011 0.707107   
     length 0.79455   
     axis -90 45 2.85299e-015   XYZ
    dof rx rz
    limits (-45.0 45.0)
           (-45.0 45.0)
  end
  begin
     id 24 
     name rclavicle
     direction -0.947168 0.319303 -0.0302977   
     length 3.53547  
     axis 0 0 0   XYZ 
    dof ry rz
    limits (-10.0 20.0)
           (-20.0 0.0)
  end
  begin
     id 25 
     name rhumerus
     direction -1 -0.000401632 0.000196042  
     length 4.77566   
     axis -180 30 90   XYZ
    dof rx ry rz
    limits (-90.0 60.0)
           (-90.0 90.0)
           (-90.0 90.0)
  end
  begin
     id 26 
     name rradius
     direction -1 -4.49012e-011 -4.87197e-027   
     length 3.21433   
     axis -180 30 90   XYZ
    dof rx
    limits (-10.0 170.0)
  end
  begin
     id 27 
     name rwrist
     direction -1 -4.48899e-011 -5.86351e-027   
     length 1.60716   
     axis 3.17445e-015 -90 -90   XYZ
    dof ry
    limits (-180.0 0.0)
  end
  begin
     id 28
     name rhand
     direction -0.999958 0.00678358 -0.00613214   
     length 0.625487   
     axis 7.48284e-015 -90 -90   XYZ
    dof rx rz
    limits (-90.0 90.0)
           (-45.0 45.0)
  end
  begin
     id 29
     name rfingers
     direction -1 -4.48756e-011 -2.3454e-026   
     length 0.505648   
     axis 1.49657e-014 -90 -90   XYZ
    dof rx
    limits (0.0 90.0)
  end
  begin
     id 30
     name rthumb
     direction -0.708559 0.00587598 0.705627   
     length 0.722099   
     axis -90 -45 -2.85299e-015   XYZ
    dof rx rz
    limits (-45.0 45.0)
           (-45.0 45.0)
  end
:hierarchy
  begin
    root lhipjoint rhipjoint lowerback
    lhipjoint lfemur
    lfemur ltibia
    ltibia lfoot
    lfoot ltoes
    rhipjoint rfemur
    rfemur rtibia
    rtibia rfoot
    rfoot rtoes
    lowerback upperback
    upperback thorax
    thorax lowerneck lclavicle rclavicle
    lowerneck upperneck
    upperneck head
    lclavicle lhumerus
    lhumerus lradius
    lradius lwrist
    lwrist lhand lthumb
    lhand lfingers
    rclavicle rhumerus
    rhumerus rradius
    rradius rwrist
    rwrist rhand rthumb
    rhand rfingers
  end

#!OML:ASF C:\Documents and Settings\Administrator\Desktop\SteveTeapot.ASF
:FULLY-SPECIFIED
:DEGREES
1265
root 0.0638607 16.5228 -7.3329 18.2831 -0.775736 1.91236
lowerback -15.4819 -1.32971 -2.86224
upperback -4.1119 -1.29427 -0.34558
thorax 4.36111 -0.657476 1.0102
lowerneck -4.23164 -1.04372 -0.63792
upperneck 4.05413 -1.34233 -0.248576
head 1.98907 -0.685474 -0.00989442
rclavicle -1.36851e-014 1.98785e-016
rhumerus -65.7883 17.8227 -98.2028
rradius 86.6339
rwrist -20.1394
rhand -24.2069 -39.6446
rfingers 7.12502
rthumb 2.27754 -69.6122
lclavicle -1.36851e-014 1.98785e-016
lhumerus -63.4577 -16.1635 89.3357
lradius 91.9545
lwrist -2.45164
lhand -20.5447 -32.114
lfingers 7.12502
lthumb 5.81393 -2.21375
rfemur -30.3607 -9.37085 21.0403
rtibia 36.8213
rfoot -27.2099 2.84446
rtoes -12.5147
lfemur -29.9578 4.7742 -22.5266
ltibia 34.3834
lfoot -20.7618 4.58405
ltoes -12.5451
1266
root 0.0686071 16.5246 -7.33378 18.357 -0.556755 1.74873
lowerback -15.6368 -1.32146 -2.67553
upperback -4.08487 -1.30866 -0.301602
thorax 4.47102 -0.664564 0.945147
lowerneck -4.21118 -1.0851 -0.76127
upperneck 4.00484 -1.39458 -0.159403
head 1.97113 -0.711037 0.0377502
rclavicle -7.45443e-016 -3.47873e-015
rhumerus -65.857 17.9888 -97.6363
rradius 85.0734
rwrist -20.7288
rhand -23.3254 -39.7771
rfingers 7.12502
rthumb 3.12884 -69.7338
lclavicle -7.45443e-016 -3.47873e-015
lhumerus -63.0679 -16.7373 89.1145
lradius 90.6342
lwrist -2.25156
lhand -20.3112 -32.1001
lfingers 7.12502
lthumb 6.03936 -2.20617
rfemur -30.4149 -9.66492 21.2982
rtibia 36.7852
rfoot -27.199 2.85893
rtoes -13.0951
lfemur -30.0733 4.7327 -22.3531
ltibia 34.4343
lfoot -20.7644 4.46121
ltoes -12.5621
1267
root 0.0716413 16.5245 -7.33702 18.3649 -0.363069 1.76514
lowerback -15.6638 -1.35707 -2.68833
upperback -4.04447 -1.35186 -0.298306
thorax 4.5303 -0.686735 0.946487
lowerneck -4.40727 -1.09723 -0.874351
upperneck 4.10057 -1.40596 -0.0675542
head 2.03968 -0.716404 0.0839798
rclavicle -1.4474e-015 -5.56597e-015
rhumerus -65.7478 18.188 -97.1491
rradius 83.3424
rwrist -21.687
rhand -22.6781 -39.6693
rfingers 7.12502
rthumb 3.75399 -69.616
lclavicle -1.4474e-015 -5.56597e-015
lhumerus -62.6062 -17.2549 88.907
lradius 89.2522
lwrist -2.06299
lhand -20.152 -31.7396
lfingers 7.12502
lthumb 6.19305 -1.85016
rfemur -30.4034 -9.73563 21.3028
rtibia 36.7522
rfoot -27.1576 2.72421
rtoes -13.5073
lfemur -30.1418 4.67918 -22.3639
ltibia 34.4902
lfoot -20.73 4.45834
ltoes -13.0289
1268
root 0.0725511 16.5237 -7.34499 18.4628 -0.270641 1.70054
lowerback -15.6519 -1.3509 -2.74549
upperback -4.10023 -1.34062 -0.209492
thorax 4.46773 -0.68044 1.07547
lowerneck -4.32898 -1.14707 -1.00166
upperneck 3.97601 -1.46199 -0.142194
head 1.98547 -0.747863 0.0812942
rclavicle -1.82199e-014 -1.14301e-014
rhumerus -65.8217 18.3659 -96.6475
rradius 81.7812
rwrist -22.9476
rhand -21.9552 -40.3438
rfingers 7.12502
rthumb 4.45201 -70.277
lclavicle -1.82199e-014 -1.14301e-014
lhumerus -62.2673 -17.7334 88.8722
lradius 87.992
lwrist -2.00367
lhand -19.9977 -31.0759
lfingers 7.12502
lthumb 6.34201 -1.19082
rfemur -30.5115 -9.40933 21.3234
rtibia 36.7536
rfoot -27.0267 2.61632
rtoes -12.6923
lfemur -30.3078 4.61251 -22.284
ltibia 34.5139
lfoot -20.6911 4.48843
ltoes -13.1814
1269
root 0.07421 16.5236 -7.3559 18.6557 -0.380039 1.67066
lowerback -15.7944 -1.29445 -2.8819
upperback -4.13728 -1.24363 -0.144123
thorax 4.50526 -0.633522 1.23836
lowerneck -4.25328 -1.24596 -1.00545
upperneck 3.81878 -1.58451 -0.372312
head 1.9189 -0.814139 0.00718505
rclavicle -5.73991e-015 -3.13086e-015
rhumerus -65.9286 18.5878 -96.2799
rradius 80.1973
rwrist -24.3903
rhand -21.4693 -40.952
rfingers 7.12502
rthumb 4.9212 -70.8749
lclavicle -5.73991e-015 -3.13086e-015
lhumerus -61.8071 -18.1407 88.771
lradius 86.7603
lwrist -2.2804
lhand -19.5026 -30.0101
lfingers 7.12502
lthumb 6.81998 -0.139963
rfemur -30.7958 -8.97953 21.2851
rtibia 36.7897
rfoot -26.8449 2.40416
rtoes -12.2672
lfemur -30.5794 4.63122 -22.2967
ltibia 34.5019
lfoot -20.6068 4.54026
ltoes -13.0542
1270
root 0.0779819 16.5238 -7.36355 18.7426 -0.506436 1.82729
lowerback -15.8801 -1.25401 -3.14821
upperback -4.10465 -1.14281 -0.163219
thorax 4.58559 -0.586867 1.38695
lowerneck -4.3739 -1.34687 -1.01196
upperneck 3.8385 -1.70887 -0.548563
head 1.94578 -0.880846 -0.0516553
rclavicle -2.08103e-016 2.48481e-015
rhumerus -65.896 18.9497 -96.0711
rradius 78.5227
rwrist -26.4084
rhand -19.8829 -44.9818
rfingers 7.12502
rthumb 6.45282 -74.8635
lclavicle -2.08103e-016 2.48481e-015
lhumerus -61.0978 -18.4686 88.6047
lradius 85.4434
lwrist -2.80154
lhand -18.4962 -28.3966
lfingers 7.12502
lthumb 7.7914 1.43981
rfemur -30.9638 -8.71777 21.039
rtibia 36.8371
rfoot -26.756 2.17435
rtoes -12.5553
lfemur -30.6797 4.59105 -22.5145
ltibia 34.471
lfoot -20.5354 4.59512
ltoes -12.8383
1271
root 0.0860743 16.5241 -7.36659 18.7602 -0.375807 1.90468
lowerback -15.8674 -1.25244 -3.1728
upperback -4.07491 -1.13423 -0.202998
thorax 4.60947 -0.583277 1.36046
lowerneck -4.54337 -1.39003 -1.03038
upperneck 3.94109 -1.7602 -0.591972
head 2.00979 -0.908539 -0.0656329
rclavicle 3.37934e-015 1.93815e-015
rhumerus -65.8082 19.2584 -95.9117
rradius 76.9144
rwrist -28.3686
rhand -18.9527 -47.5262
rfingers 7.12502
rthumb 7.35079 -77.3785
lclavicle 3.37934e-015 1.93815e-015
lhumerus -60.4441 -18.6433 88.3943
lradius 84.3
lwrist -3.64832
lhand -17.3526 -26.6895
lfingers 7.12502
lthumb 8.89508 3.10306
rfemur -31.0101 -9.02924 21.0028
rtibia 36.8692
rfoot -26.8554 2.21111
rtoes -13.0752
lfemur -30.6946 4.52994 -22.6137
ltibia 34.4375
lfoot -20.5588 4.41109
ltoes -12.2333
1272
root 0.0942168 16.5253 -7.37117 18.7963 -0.318189 1.87448
lowerback -15.9074 -1.2192 -3.09453
upperback -4.02626 -1.09929 -0.221859
thorax 4.67933 -0.566755 1.30212
lowerneck -4.54493 -1.38886 -1.01188
upperneck 3.78483 -1.76025 -0.60578
head 1.95865 -0.907861 -0.0722626
rclavicle 6.76178e-015 4.72114e-015
rhumerus -65.7858 19.4979 -95.7845
rradius 75.3721
rwrist -30.09
rhand -18.5828 -47.3853
rfingers 7.12502
rthumb 7.70783 -77.2248
lclavicle 6.76178e-015 4.72114e-015
lhumerus -59.9419 -18.7365 88.1912
lradius 83.3987
lwrist -4.68797
lhand -16.2855 -24.9951
lfingers 7.12502
lthumb 9.9247 4.75099
rfemur -31.0687 -9.12953 21.0448
rtibia 36.878
rfoot -26.8962 2.16761
rtoes -13.4549
lfemur -30.7723 4.61786 -22.6378
ltibia 34.4153
lfoot -20.5715 4.31795
ltoes -12.4439
1273
root 0.0989716 16.5265 -7.37965 18.8198 -0.340188 1.79975
lowerback -15.9427 -1.15711 -3.05971
upperback -3.9829 -1.02087 -0.219357
thorax 4.74026 -0.528999 1.29973
lowerneck -4.54966 -1.42471 -0.930138
upperneck 3.73805 -1.80977 -0.689213
head 1.94264 -0.93323 -0.113563
rclavicle -2.80473e-015 -9.39258e-015
rhumerus -65.935 19.7749 -95.8017
rradius 73.9807
rwrist -32.3327
rhand -18.6328 -46.1911
rfingers 7.12502
rthumb 7.65958 -76.0324
lclavicle -2.80473e-015 -9.39258e-015
lhumerus -59.4224 -18.7694 88.0184
lradius 82.4625
lwrist -5.70616
lhand -14.7257 -24.0394
lfingers 7.12502
lthumb 11.4293 5.62908
rfemur -31.1152 -8.89716 21.0779
rtibia 36.8627
rfoot -26.805 2.01874
rtoes -13.447
lfemur -30.8553 4.67375 -22.5868
ltibia 34.4126
lfoot -20.5661 4.29638
ltoes -12.4501
1274
root 0.1063 16.5282 -7.38842 18.9316 -0.328579 1.71101
lowerback -15.9679 -1.07226 -2.97262
upperback -4.02011 -0.921528 -0.238472
thorax 4.70836 -0.478452 1.25001
lowerneck -4.59463 -1.49891 -0.796156
upperneck 3.84806 -1.91137 -0.790469
head 1.98434 -0.985065 -0.172254
rclavicle 5.74612e-015 8.54774e-015
rhumerus -66.175 20.0623 -95.9451
rradius 72.8588
rwrist -34.9863
rhand -17.6143 -47.5065
rfingers 7.12502
rthumb 8.64252 -77.3096
lclavicle 5.74612e-015 8.54774e-015
lhumerus -58.9916 -18.8321 87.9031
lradius 81.5592
lwrist -6.8496
lhand -13.1737 -23.6445
lfingers 7.12502
lthumb 12.9258 5.93516
rfemur -31.2607 -8.66254 21.1341
rtibia 36.8444
rfoot -26.7034 1.87078
rtoes -13.2469
lfemur -31.0356 4.74618 -22.5453
ltibia 34.4122
lfoot -20.5438 4.25616
ltoes -12.5928
1275
root 0.112933 16.5291 -7.39425 19.0411 -0.303763 1.72449
lowerback -15.9466 -1.04402 -2.98556
upperback -4.11377 -0.882676 -0.272934
thorax 4.59552 -0.456995 1.22966
lowerneck -4.64578 -1.49933 -0.749422
upperneck 4.02453 -1.91388 -0.773815
head 2.05106 -0.986053 -0.176699
rclavicle -5.26158e-015 -5.96354e-015
rhumerus -66.5328 20.4375 -96.2633
rradius 71.878
rwrist -37.8765
rhand -15.9878 -49.8064
rfingers 7.12502
rthumb 10.2119 -79.5386
lclavicle -5.26158e-015 -5.96354e-015
lhumerus -58.7662 -18.6303 87.7733
lradius 80.8023
lwrist -8.33473
lhand -11.7626 -23.4004
lfingers 7.12502
lthumb 14.2858 6.08817
rfemur -31.3824 -8.50618 21.0793
rtibia 36.8147
rfoot -26.6173 1.70314
rtoes -13.4116
lfemur -31.2056 4.76712 -22.6003
ltibia 34.4294
lfoot -20.5868 4.10733
ltoes -12.2885
1276
root 0.121154 16.5291 -7.39751 19.0768 -0.349657 1.7907
lowerback -15.9591 -1.05123 -3.05335
upperback -4.15477 -0.880913 -0.286283
thorax 4.55931 -0.455747 1.25445
lowerneck -4.73192 -1.45978 -0.798971
upperneck 4.1407 -1.85379 -0.814337
head 2.10498 -0.958679 -0.180697
rclavicle -8.42971e-015 -1.45113e-014
rhumerus -66.755 20.956 -96.6218
rradius 70.8771
rwrist -40.7833
rhand -15.2707 -50.9194
rfingers 7.12502
rthumb 10.9036 -80.6163
lclavicle -8.42971e-015 -1.45113e-014
lhumerus -58.6209 -18.1982 87.7039
lradius 80.0992
lwrist -9.72164
lhand -10.5607 -23.4399
lfingers 7.12502
lthumb 15.4436 5.96318
rfemur -31.444 -8.51377 20.9738
rtibia 36.8005
rfoot -26.5873 1.66214
rtoes -13.5953
lfemur -31.2603 4.80612 -22.7259
ltibia 34.4416
lfoot -20.6233 4.00874
ltoes -11.7441
1277
root 0.129098 16.5294 -7.40322 19.0939 -0.282931 1.63263
lowerback -16.0144 -1.04836 -2.91343
upperback -4.13966 -0.902538 -0.192236
thorax 4.60574 -0.466196 1.26953
lowerneck -4.85541 -1.45813 -0.838086
upperneck 4.25474 -1.83586 -1.01832
head 2.16345 -0.95685 -0.239716
rclavicle 1.38528e-015 9.24349e-015
rhumerus -66.9498 21.427 -96.8458
rradius 70.1505
rwrist -43.5698
rhand -14.7514 -51.2514
rfingers 7.12502
rthumb 11.4045 -80.9212
lclavicle 1.38528e-015 9.24349e-015
lhumerus -58.5044 -17.8431 87.8061
lradius 79.4416
lwrist -10.6941
lhand -10.1504 -23.6026
lfingers 7.12502
lthumb 15.8388 5.76956
rfemur -31.4759 -8.45094 21.1257
rtibia 36.795
rfoot -26.5711 1.68047
rtoes -13.3459
lfemur -31.3031 4.77377 -22.5638
ltibia 34.4541
lfoot -20.5996 3.97116
ltoes -11.5007
1278
root 0.134714 16.5303 -7.41223 19.1319 -0.142911 1.72742
lowerback -16.0553 -1.11276 -3.0211
upperback -4.14369 -0.969267 -0.176533
thorax 4.6281 -0.500001 1.33336
lowerneck -4.79162 -1.50211 -0.825957
upperneck 4.29495 -1.88606 -1.20669
head 2.16308 -0.986967 -0.302566
rclavicle 6.95436e-015 -8.44835e-015
rhumerus -67.278 21.8208 -97.2017
rradius 69.5896
rwrist -46.2348
rhand -13.9744 -50.5812
rfingers 7.12502
rthumb 12.1537 -80.2081
lclavicle 6.95436e-015 -8.44835e-015
lhumerus -58.5352 -17.5323 87.9529
lradius 78.9682
lwrist -11.2808
lhand -10.481 -23.6904
lfingers 7.12502
lthumb 15.5204 5.70675
rfemur -31.5403 -8.45579 21.0222
rtibia 36.8172
rfoot -26.5692 1.48482
rtoes -13.4922
lfemur -31.3858 4.77211 -22.6927
ltibia 34.4324
lfoot -20.572 3.8098
ltoes -11.7258
